<svg xmlns="http://www.w3.org/2000/svg" xmlns:xlink="http://www.w3.org/1999/xlink" width="1080" zoomAndPan="magnify" viewBox="0 0 810 809.999993" height="1080" preserveAspectRatio="xMidYMid meet" version="1.0"><defs><clipPath id="fd70202bc1"><path d="M 98 60.957031 L 712.191406 60.957031 L 712.191406 748.707031 L 98 748.707031 Z M 98 60.957031 " clip-rule="nonzero"/></clipPath></defs><g clip-path="url(#fd70202bc1)"><path fill="#b2e6e0" d="M 552.03125 174.027344 L 552.03125 218.585938 L 536.9375 218.585938 C 524.359375 218.585938 512.339844 223.375 503.175781 231.96875 C 502.777344 232.320312 502.386719 232.6875 502.007812 233.066406 C 493.585938 241.492188 488.523438 252.578125 487.660156 264.371094 L 408.882812 264.371094 C 396.539062 264.371094 386.503906 274.398438 386.503906 286.746094 L 386.503906 337.460938 C 386.503906 347.035156 392.519531 355.476562 401.570312 358.605469 L 403.191406 359.167969 L 403.191406 482.476562 C 403.191406 494.484375 412.945312 504.238281 424.953125 504.238281 L 552.03125 504.238281 L 552.03125 533.328125 C 507.769531 551.28125 476.546875 594.691406 476.546875 645.398438 C 476.546875 646.238281 476.5625 647.074219 476.578125 647.910156 L 130.164062 647.910156 C 112.492188 647.910156 98.035156 633.453125 98.035156 615.78125 L 98.035156 93.082031 C 98.035156 75.414062 112.492188 60.953125 130.164062 60.953125 L 434.640625 60.953125 L 434.640625 124.632812 C 434.640625 151.835938 456.835938 174.027344 484.035156 174.027344 Z M 521.964844 400.238281 L 420.457031 365.136719 L 420.457031 482.476562 C 420.457031 484.953125 422.472656 486.972656 424.953125 486.972656 L 690.945312 486.972656 C 693.421875 486.972656 695.441406 484.953125 695.441406 482.476562 L 695.441406 365.117188 L 593.929688 400.117188 L 593.929688 402.996094 C 593.929688 422.785156 577.738281 438.976562 557.949219 438.976562 L 557.945312 438.976562 C 538.15625 438.976562 521.964844 422.785156 521.964844 402.996094 Z M 504.789062 281.632812 L 408.882812 281.632812 C 406.0625 281.632812 403.769531 283.929688 403.769531 286.746094 L 403.769531 337.460938 C 403.769531 339.679688 405.113281 341.570312 407.210938 342.292969 L 521.964844 381.972656 L 521.964844 377.25 C 521.964844 357.460938 538.15625 341.273438 557.945312 341.273438 L 557.949219 341.273438 C 577.738281 341.273438 593.929688 357.460938 593.929688 377.25 L 593.929688 381.859375 L 708.675781 342.292969 C 710.773438 341.570312 712.121094 339.675781 712.121094 337.457031 L 712.121094 286.746094 C 712.121094 283.929688 709.828125 281.632812 707.007812 281.632812 L 611.101562 281.632812 L 611.101562 267.992188 C 611.101562 259.128906 607.496094 251.089844 601.675781 245.273438 C 595.859375 239.453125 587.816406 235.847656 578.957031 235.847656 L 536.9375 235.847656 C 528.363281 235.847656 520.554688 239.242188 514.78125 244.753906 C 514.585938 244.917969 514.398438 245.089844 514.214844 245.273438 C 508.394531 251.089844 504.789062 259.128906 504.789062 267.992188 Z M 593.835938 281.632812 L 593.835938 267.992188 C 593.835938 263.894531 592.164062 260.167969 589.472656 257.476562 C 586.78125 254.785156 583.054688 253.113281 578.957031 253.113281 L 536.9375 253.113281 C 533 253.113281 529.417969 254.636719 526.757812 257.121094 L 526.417969 257.476562 C 523.726562 260.167969 522.054688 263.894531 522.054688 267.992188 L 522.054688 281.632812 Z M 557.945312 358.535156 C 547.652344 358.535156 539.226562 366.957031 539.226562 377.253906 L 539.226562 402.996094 C 539.226562 413.296875 547.652344 421.714844 557.945312 421.714844 L 557.949219 421.714844 C 568.242188 421.714844 576.667969 413.296875 576.667969 402.996094 L 576.667969 377.253906 C 576.667969 366.957031 568.242188 358.535156 557.949219 358.535156 Z M 451.90625 60.953125 L 451.90625 124.632812 C 451.90625 142.304688 466.363281 156.765625 484.035156 156.765625 L 552.03125 156.765625 Z M 597.445312 541.757812 C 540.207031 541.757812 493.804688 588.160156 493.804688 645.402344 C 493.804688 702.640625 540.207031 749.039062 597.445312 749.039062 C 654.6875 749.039062 701.085938 702.640625 701.085938 645.402344 C 701.085938 588.160156 654.6875 541.757812 597.445312 541.757812 Z M 547.097656 651.386719 L 576.585938 686.773438 C 579.617188 690.417969 585.039062 690.917969 588.6875 687.886719 C 589.140625 687.511719 589.539062 687.105469 589.890625 686.664062 L 589.902344 686.671875 L 647.898438 614.921875 C 650.875 611.214844 650.285156 605.792969 646.582031 602.816406 C 642.878906 599.839844 637.457031 600.425781 634.476562 604.128906 L 583.082031 667.71875 L 560.316406 640.398438 C 557.28125 636.75 551.859375 636.25 548.210938 639.285156 C 544.5625 642.316406 544.0625 647.738281 547.097656 651.386719 Z M 169.304688 397.46875 L 361.347656 397.46875 C 366.113281 397.46875 369.980469 393.601562 369.980469 388.835938 C 369.980469 384.070312 366.113281 380.203125 361.347656 380.203125 L 169.304688 380.203125 C 164.539062 380.203125 160.671875 384.070312 160.671875 388.835938 C 160.671875 393.601562 164.539062 397.46875 169.304688 397.46875 Z M 169.304688 475.402344 L 361.347656 475.402344 C 366.113281 475.402344 369.980469 471.539062 369.980469 466.769531 C 369.980469 462.003906 366.113281 458.140625 361.347656 458.140625 L 169.304688 458.140625 C 164.539062 458.140625 160.671875 462.003906 160.671875 466.769531 C 160.671875 471.539062 164.539062 475.402344 169.304688 475.402344 Z M 169.304688 553.339844 L 480.757812 553.339844 C 485.527344 553.339844 489.390625 549.472656 489.390625 544.707031 C 489.390625 539.941406 485.527344 536.074219 480.757812 536.074219 L 169.304688 536.074219 C 164.539062 536.074219 160.671875 539.941406 160.671875 544.707031 C 160.671875 549.472656 164.539062 553.339844 169.304688 553.339844 Z M 241.257812 113.101562 C 220.851562 113.101562 204.304688 129.644531 204.304688 150.054688 C 204.304688 170.460938 220.851562 187 241.257812 187 C 261.664062 187 278.203125 170.460938 278.203125 150.054688 C 278.203125 129.644531 261.664062 113.101562 241.257812 113.101562 Z M 163.128906 290.859375 C 215.214844 309.859375 267.304688 309.863281 319.386719 290.859375 C 321.898438 289.941406 323.46875 287.609375 323.378906 284.933594 C 321.839844 240.90625 285.660156 205.679688 241.261719 205.679688 C 196.851562 205.679688 160.671875 240.90625 159.136719 284.933594 C 159.042969 287.609375 160.609375 289.941406 163.128906 290.859375 Z M 163.128906 290.859375 " fill-opacity="1" fill-rule="evenodd"/></g></svg>